<svg width="11" height="14" viewBox="0 0 11 14" fill="none" xmlns="http://www.w3.org/2000/svg">
<ellipse cx="5.3822" cy="3.67357" rx="3.67357" ry="3.82544" transform="rotate(90 5.3822 3.67357)" fill="#D57A43"/>
<path fill-rule="evenodd" clip-rule="evenodd" d="M5.27686 3.26452C5.15888 3.20584 5.07718 3.07871 5.07718 2.93135C5.07718 2.72823 5.2324 2.56357 5.42386 2.56357C5.61533 2.56357 5.77054 2.72823 5.77054 2.93135C5.77054 3.0652 5.70314 3.18234 5.60238 3.24668L5.77054 4.95411H5.07718L5.27686 3.26452ZM7.40491 5.24036C7.40491 5.37881 7.30533 5.49777 7.16881 5.52081C6.72283 5.5961 6.3337 5.64546 5.96868 5.67065V13.6232L5.96865 13.6232C5.77922 14.1256 5.06853 14.1256 4.87909 13.6232L4.87912 13.6232V5.67334C4.49656 5.6484 4.10245 5.59679 3.6541 5.52081C3.51756 5.49767 3.41809 5.37876 3.41809 5.24027C3.41809 5.08224 3.54621 4.95412 3.70424 4.95412H7.11867C7.27675 4.95412 7.40491 5.08227 7.40491 5.24036Z" fill="black"/>
<path fill-rule="evenodd" clip-rule="evenodd" d="M1.44997 5.2981C1.35794 5.25232 1.2942 5.15316 1.2942 5.0382C1.2942 4.87976 1.41528 4.75131 1.56463 4.75131C1.71399 4.75131 1.83506 4.87976 1.83506 5.0382C1.83506 5.14261 1.78249 5.23399 1.70389 5.28418L1.83507 6.61609H1.2942L1.44997 5.2981ZM3.10995 6.83939C3.10995 6.94739 3.03228 7.04018 2.92578 7.05816C2.5779 7.11688 2.27437 7.15538 1.98964 7.17504V13.3785H1.13972V7.17714C0.84129 7.15769 0.533854 7.11743 0.184099 7.05815C0.0775919 7.0401 0 6.94735 0 6.83932C0 6.71604 0.0999375 6.6161 0.223217 6.6161H2.88667C3.00998 6.6161 3.10995 6.71607 3.10995 6.83939ZM1.98968 13.3785H1.13976C1.28753 13.7704 1.84191 13.7704 1.98968 13.3785Z" fill="black"/>
<path fill-rule="evenodd" clip-rule="evenodd" d="M9.0854 5.2981C8.99337 5.25232 8.92964 5.15316 8.92964 5.0382C8.92964 4.87976 9.05072 4.75131 9.20007 4.75131C9.34943 4.75131 9.4705 4.87976 9.4705 5.0382C9.4705 5.14261 9.41793 5.23399 9.33933 5.28418L9.4705 6.61609H8.92964L9.0854 5.2981ZM10.7454 6.83939C10.7454 6.94739 10.6677 7.04018 10.5612 7.05816C10.2133 7.11688 9.9098 7.15538 9.62508 7.17504V13.3785H8.77515V7.17714C8.47673 7.15769 8.16929 7.11743 7.81954 7.05815C7.71303 7.0401 7.63544 6.94735 7.63544 6.83932C7.63544 6.71604 7.73537 6.6161 7.85865 6.6161H10.5221C10.6454 6.6161 10.7454 6.71607 10.7454 6.83939ZM9.62512 13.3785H8.77519C8.92296 13.7704 9.47735 13.7704 9.62512 13.3785Z" fill="black"/>
</svg>
