<svg width="8201" height="9915" viewBox="0 0 8201 9915" fill="none" xmlns="http://www.w3.org/2000/svg">
<path fill-rule="evenodd" clip-rule="evenodd" d="M6431.89 5296C5932.49 4478.91 5232.33 3797.89 4400 3321.53V1828.5C5182.26 1380.79 5847.77 752.314 6339.6 0C7425.53 398.575 8200.31 1441.74 8200.31 2665.86C8200.31 3855.01 7469.17 4873.4 6431.89 5296Z" fill="#0D0628"/>
<path fill-rule="evenodd" clip-rule="evenodd" d="M1768.42 5296C2267.82 4478.91 2967.98 3797.89 3800.31 3321.53V1828.5C3018.05 1380.79 2352.54 752.315 1860.71 0C774.781 398.575 0 1441.74 0 2665.86C0 3855.01 731.146 4873.4 1768.42 5296Z" fill="#0D0628"/>
<path fill-rule="evenodd" clip-rule="evenodd" d="M1775.21 5156.85C2248.28 4382.83 2911.54 3737.71 3700 3286.46V1872.12C2958.97 1448.02 2328.53 852.661 1862.63 140C833.94 517.569 100 1505.75 100 2665.35C100 3791.82 792.608 4756.53 1775.21 5156.85Z" fill="#AFADAD"/>
<path fill-rule="evenodd" clip-rule="evenodd" d="M6436.79 5156.85C5963.72 4382.83 5300.46 3737.71 4512 3286.46V1872.12C5253.03 1448.02 5883.47 852.661 6349.37 140C7378.06 517.569 8112 1505.75 8112 2665.35C8112 3791.82 7419.39 4756.53 6436.79 5156.85Z" fill="#AFADAD"/>
<rect x="3688" y="1616" width="824" height="1988" fill="#C4C4C4"/>
<rect x="3800" y="2952" width="600" height="6800" fill="#630A04"/>
<path fill-rule="evenodd" clip-rule="evenodd" d="M3838 9730C3817.02 9730 3800 9747.01 3800 9768V9832C3800 9852.99 3817.02 9870 3838 9870H3958.12C3965.15 9895.93 3988.85 9915 4017 9915H4183C4211.15 9915 4234.85 9895.93 4241.88 9870H4362C4382.98 9870 4400 9852.99 4400 9832V9768C4400 9747.01 4382.98 9730 4362 9730H3838Z" fill="#AFADAD"/>
<rect x="3775" y="9730" width="650" height="45" rx="22.5" fill="#807E7E"/>
<path fill-rule="evenodd" clip-rule="evenodd" d="M7273.55 2252.86L7323.89 2303.2L7327.43 2299.67V2198.77L7327.43 2198.76V2091.74L7323.89 2088.2L7273.55 2138.55L7179.97 2044.97L7179.98 2044.97L6986.01 1851L6984.96 1852.05L6983.91 1851L6879.37 1955.53L6879.37 1955.53L6696.36 2138.54L6646.02 2088.21L6642.48 2091.74V2192.64V2198.77V2299.67L6646.02 2303.2L6696.36 2252.87L6879.37 2435.88L6879.37 2435.88L6983.91 2540.41L6984.96 2539.36L6986.01 2540.41L7179.98 2346.44L7179.98 2346.44L7273.55 2252.86ZM6944.41 2004.59L6984.96 1964.05L7025.5 2004.59L7025.39 2004.7L7216.39 2195.7L7025.39 2386.7L7025.5 2386.81L6984.96 2427.36L6944.41 2386.82L6944.53 2386.7L6753.53 2195.7L6944.53 2004.7L6944.41 2004.59ZM6984.93 2651.06L6984.93 2651.06V2544.04L6981.4 2540.5L6931.06 2590.84L6837.48 2497.26L6748.04 2407.82L6643.51 2303.29L6642.47 2304.34L6641.42 2303.29L6536.89 2407.82L6447.45 2497.26L6353.88 2590.84L6303.54 2540.5L6300 2544.04V2644.94V2651.06V2751.96L6303.54 2755.5L6353.88 2705.16L6447.45 2798.73L6536.89 2888.17L6641.42 2992.7L6642.47 2991.66L6643.51 2992.7L6837.48 2798.73L6837.48 2798.73L6931.05 2705.16L6981.4 2755.5L6984.93 2751.96V2651.06ZM6601.93 2456.89L6642.47 2416.35L6683.01 2456.89L6682.9 2457L6787.43 2561.53L6787.43 2561.53L6873.9 2648L6787.43 2734.47L6787.43 2734.47L6682.9 2839L6683.01 2839.11L6642.47 2879.65L6601.93 2839.11L6602.04 2839L6497.51 2734.47L6411.04 2648L6497.51 2561.53L6497.51 2561.53L6602.04 2457L6601.93 2456.89ZM7323.89 3207.8L7273.55 3157.45L7179.98 3251.03L7179.98 3251.03L6986.01 3445L6984.96 3443.95L6983.91 3445L6879.37 3340.47L6879.37 3340.47L6696.36 3157.46L6646.02 3207.8L6642.48 3204.26V3103.36V3097.23V2996.33L6646.02 2992.8L6696.36 3043.13L6879.37 2860.12L6879.37 2860.13L6983.91 2755.59L6984.96 2756.64L6986.01 2755.59L7179.98 2949.56L7179.97 2949.56L7273.55 3043.14L7323.89 2992.79L7327.43 2996.33V3103.36L7327.43 3103.36V3204.26L7323.89 3207.8ZM6984.96 2868.64L7025.5 2909.18L7025.39 2909.3L7216.39 3100.3L7025.39 3291.29L7025.5 3291.41L6984.96 3331.95L6944.41 3291.41L6944.53 3291.3L6753.53 3100.3L6944.53 2909.3L6944.41 2909.18L6984.96 2868.64ZM7669.91 2651.06L7669.91 2651.06V2544.04L7666.38 2540.5L7616.03 2590.84L7522.46 2497.26L7433.02 2407.82L7328.49 2303.29L7327.45 2304.34L7326.4 2303.29L7221.87 2407.82L7132.43 2497.26L7038.86 2590.84L6988.52 2540.5L6984.98 2544.04V2644.94V2651.06V2751.96L6988.52 2755.5L7038.86 2705.16L7132.43 2798.73L7221.87 2888.17L7326.4 2992.7L7327.45 2991.66L7328.49 2992.7L7522.46 2798.73L7522.46 2798.73L7616.03 2705.16L7666.37 2755.5L7669.91 2751.96V2651.06ZM7286.91 2456.89L7327.45 2416.35L7367.99 2456.89L7367.88 2457L7472.41 2561.53L7472.41 2561.53L7558.88 2648L7472.41 2734.47L7472.41 2734.47L7367.88 2839L7367.99 2839.11L7327.45 2879.65L7286.91 2839.11L7287.01 2839L7182.49 2734.47L7096.02 2648L7182.49 2561.53L7182.48 2561.53L7287.01 2457L7286.91 2456.89Z" fill="#0D0628"/>
<path fill-rule="evenodd" clip-rule="evenodd" d="M7273.55 2252.86L7323.89 2303.2L7327.43 2299.67V2198.77L7327.43 2198.76V2091.74L7323.89 2088.2L7273.55 2138.55L7179.97 2044.97L7179.98 2044.97L6986.01 1851L6984.96 1852.05L6983.91 1851L6879.37 1955.53L6879.37 1955.53L6696.36 2138.54L6646.02 2088.21L6642.48 2091.74V2192.64V2198.77V2299.67L6646.02 2303.2L6696.36 2252.87L6879.37 2435.88L6879.37 2435.88L6983.91 2540.41L6984.96 2539.36L6986.01 2540.41L7179.98 2346.44L7179.98 2346.44L7273.55 2252.86ZM6944.41 2004.59L6984.96 1964.05L7025.5 2004.59L7025.39 2004.7L7216.39 2195.7L7025.39 2386.7L7025.5 2386.81L6984.96 2427.36L6944.41 2386.82L6944.53 2386.7L6753.53 2195.7L6944.53 2004.7L6944.41 2004.59ZM6931.05 2705.16L6981.4 2755.5L6984.93 2751.96V2651.06L6984.93 2651.06V2544.04L6981.4 2540.5L6931.06 2590.84L6837.48 2497.26L6748.04 2407.82L6643.51 2303.29L6642.47 2304.34L6641.42 2303.29L6536.89 2407.82L6447.45 2497.26L6353.88 2590.84L6303.54 2540.5L6300 2544.04V2644.94V2651.06V2751.96L6303.54 2755.5L6353.88 2705.16L6447.45 2798.73L6536.89 2888.17L6641.42 2992.7L6642.47 2991.66L6643.51 2992.7L6837.48 2798.73L6837.48 2798.73L6931.05 2705.16ZM6601.93 2456.89L6642.47 2416.35L6683.01 2456.89L6682.9 2457L6787.43 2561.53L6787.43 2561.53L6873.9 2648L6787.43 2734.47L6787.43 2734.47L6682.9 2839L6683.01 2839.11L6642.47 2879.65L6601.93 2839.11L6602.04 2839L6497.51 2734.47L6411.04 2648L6497.51 2561.53L6497.51 2561.53L6602.04 2457L6601.93 2456.89ZM7323.89 3207.8L7273.55 3157.45L7179.98 3251.03L7179.98 3251.03L6986.01 3445L6984.96 3443.95L6983.91 3445L6879.37 3340.47L6879.37 3340.47L6696.36 3157.46L6646.02 3207.8L6642.48 3204.26V3103.36V3097.23V2996.33L6646.02 2992.8L6696.36 3043.13L6879.37 2860.12L6879.37 2860.13L6983.91 2755.59L6984.96 2756.64L6986.01 2755.59L7179.98 2949.56L7179.97 2949.56L7273.55 3043.14L7323.89 2992.79L7327.43 2996.33V3103.36L7327.43 3103.36V3204.26L7323.89 3207.8ZM6984.96 2868.64L6944.41 2909.18L6944.53 2909.3L6753.53 3100.3L6944.53 3291.3L6944.41 3291.41L6984.96 3331.95L7025.5 3291.41L7025.39 3291.29L7216.39 3100.3L7025.39 2909.3L7025.5 2909.18L6984.96 2868.64ZM7669.91 2651.06L7669.91 2651.06V2544.04L7666.38 2540.5L7616.03 2590.84L7522.46 2497.26L7433.02 2407.82L7328.49 2303.29L7327.45 2304.34L7326.4 2303.29L7221.87 2407.82L7132.43 2497.26L7038.86 2590.84L6988.52 2540.5L6984.98 2544.04V2644.94V2651.06V2751.96L6988.52 2755.5L7038.86 2705.16L7132.43 2798.73L7221.87 2888.17L7326.4 2992.7L7327.45 2991.66L7328.49 2992.7L7522.46 2798.73L7522.46 2798.73L7616.03 2705.16L7666.37 2755.5L7669.91 2751.96V2651.06ZM7286.91 2456.89L7327.45 2416.35L7367.99 2456.89L7367.88 2457L7472.41 2561.53L7472.41 2561.53L7558.88 2648L7472.41 2734.47L7472.41 2734.47L7367.88 2839L7367.99 2839.11L7327.45 2879.65L7286.91 2839.11L7287.01 2839L7182.49 2734.47L7096.02 2648L7182.49 2561.53L7182.48 2561.53L7287.01 2457L7286.91 2456.89Z" fill="#0D0628"/>
<path fill-rule="evenodd" clip-rule="evenodd" d="M1503.55 2252.86L1553.89 2303.2L1557.43 2299.67V2198.77L1557.43 2198.76V2091.74L1553.89 2088.2L1503.55 2138.55L1409.97 2044.97L1409.98 2044.97L1216.01 1851L1214.96 1852.05L1213.91 1851L1109.37 1955.53L1109.37 1955.53L926.357 2138.54L876.019 2088.21L872.482 2091.74V2192.64V2198.77V2299.67L876.019 2303.2L926.357 2252.87L1109.37 2435.88L1109.37 2435.88L1213.91 2540.41L1214.96 2539.36L1216.01 2540.41L1409.98 2346.44L1409.98 2346.44L1503.55 2252.86ZM1174.41 2004.59L1214.96 1964.05L1255.5 2004.59L1255.39 2004.7L1446.39 2195.7L1255.39 2386.7L1255.5 2386.81L1214.96 2427.36L1174.41 2386.82L1174.53 2386.7L983.526 2195.7L1174.53 2004.7L1174.41 2004.59ZM1161.05 2705.16L1211.4 2755.5L1214.93 2751.96V2651.06L1214.93 2651.06V2544.04L1211.4 2540.5L1161.06 2590.84L1067.48 2497.26L978.039 2407.82L873.51 2303.29L872.467 2304.34L871.424 2303.29L766.894 2407.82L677.455 2497.26L583.878 2590.84L533.538 2540.5L530 2544.04V2644.94V2651.06V2751.96L533.538 2755.5L583.879 2705.16L677.455 2798.73L766.894 2888.17L871.424 2992.7L872.466 2991.66L873.511 2992.7L1067.48 2798.73L1067.48 2798.73L1161.05 2705.16ZM831.927 2456.89L872.467 2416.35L913.006 2456.89L912.898 2457L1017.43 2561.53L1017.43 2561.53L1103.9 2648L1017.43 2734.47L1017.43 2734.47L912.899 2839L913.007 2839.11L872.468 2879.65L831.927 2839.11L832.036 2839L727.506 2734.47L641.037 2648L727.506 2561.53L727.506 2561.53L832.036 2457L831.927 2456.89ZM1553.89 3207.8L1503.55 3157.45L1409.98 3251.03L1409.98 3251.03L1216.01 3445L1214.96 3443.95L1213.91 3445L1109.37 3340.47L1109.37 3340.47L926.357 3157.46L876.019 3207.8L872.482 3204.26V3103.36V3097.23V2996.33L876.019 2992.8L926.357 3043.13L1109.37 2860.12L1109.37 2860.13L1213.91 2755.59L1214.96 2756.64L1216.01 2755.59L1409.98 2949.56L1409.97 2949.56L1503.55 3043.14L1553.89 2992.79L1557.43 2996.33V3103.36L1557.43 3103.36V3204.26L1553.89 3207.8ZM1214.96 2868.64L1174.41 2909.18L1174.53 2909.3L983.526 3100.3L1174.53 3291.3L1174.41 3291.41L1214.96 3331.95L1255.5 3291.41L1255.39 3291.29L1446.39 3100.3L1255.39 2909.3L1255.5 2909.18L1214.96 2868.64ZM1899.91 2651.06L1899.91 2651.06V2544.04L1896.38 2540.5L1846.03 2590.84L1752.46 2497.26L1663.02 2407.82L1558.49 2303.29L1557.45 2304.34L1556.4 2303.29L1451.87 2407.82L1362.43 2497.26L1268.86 2590.84L1218.52 2540.5L1214.98 2544.04V2644.94V2651.06V2751.96L1218.52 2755.5L1268.86 2705.16L1362.43 2798.73L1451.87 2888.17L1556.4 2992.7L1557.45 2991.66L1558.49 2992.7L1752.46 2798.73L1752.46 2798.73L1846.03 2705.16L1896.37 2755.5L1899.91 2751.96V2651.06ZM1516.91 2456.89L1557.45 2416.35L1597.99 2456.89L1597.88 2457L1702.41 2561.53L1702.41 2561.53L1788.88 2648L1702.41 2734.47L1702.41 2734.47L1597.88 2839L1597.99 2839.11L1557.45 2879.65L1516.91 2839.11L1517.01 2839L1412.49 2734.47L1326.02 2648L1412.49 2561.53L1412.48 2561.53L1517.01 2457L1516.91 2456.89Z" fill="#0D0628"/>
<path fill-rule="evenodd" clip-rule="evenodd" d="M3790.79 2928.76L3688 3117.93V3588.46L3696.44 3604L3946.13 3144.46L4100 2861.28L4503.55 3604L4511.99 3588.46V3117.93L4409.21 2928.76L4409.47 2928.28L4236.53 2609.99L4409.46 2291.73L4409.2 2291.24L4511.98 2102.07V1631.54L4503.54 1616L4253.85 2075.54L4100 2358.7L3946.14 2075.54L3696.45 1616L3688.01 1631.54V2102.07L3790.79 2291.24L3790.53 2291.73L3963.46 2609.99L3790.52 2928.27L3790.79 2928.76Z" fill="#AC5300"/>
</svg>
