<svg width="2621" height="9496" viewBox="0 0 2621 9496" fill="none" xmlns="http://www.w3.org/2000/svg">
<rect x="1140" y="2696" width="268" height="6800" fill="#630A04"/>
<path d="M1274 614L1524 1347.82L1274 2081.64L1024 1347.82L1274 614Z" fill="#1BBEF1"/>
<path d="M1523.5 772L1576 963L1523.5 1154L1471 963L1523.5 772Z" fill="#18A5D1"/>
<path d="M873.5 1157L926 1348L873.5 1539L821 1348L873.5 1157Z" fill="#3DCCF9"/>
<path d="M1521.5 1621L1574 1812L1521.5 2003L1469 1812L1521.5 1621Z" fill="#3FC3EC"/>
<path d="M1626.5 1444L1679 1539.5L1626.5 1635L1574 1539.5L1626.5 1444Z" fill="#2CB2DC"/>
<path fill-rule="evenodd" clip-rule="evenodd" d="M973 0H1573V150H1347.79L2471 1273.21V1048H2621V1648H2471V1422.38L1347.38 2546H1407V2696H1139V2546H1198.2L150 1497.79V1648H0V1347.79V1048H150V1197.79L1197.79 150H973V0ZM1272.66 287L212 1347.66L1272.66 2408.32L2333.32 1347.66L1272.66 287Z" fill="#170133"/>
</svg>
